<?xml version="1.0" encoding="utf-8"?>
<!-- Generator: Adobe Illustrator 25.4.1, SVG Export Plug-In . SVG Version: 6.00 Build 0)  -->
<svg version="1.1" id="Capa_1" xmlns="http://www.w3.org/2000/svg" xmlns:xlink="http://www.w3.org/1999/xlink" x="0px" y="0px"
	 viewBox="0 0 595.28 203.37" style="enable-background:new 0 0 595.28 203.37;" xml:space="preserve">
<style type="text/css">
	.st0{fill:#434797;}
	.st1{fill:#FFFFFF;}
	.st2{fill:#434797;stroke:#434797;stroke-width:3;stroke-miterlimit:10;}
	.st3{fill:#434797;stroke:#434797;stroke-width:2;stroke-miterlimit:10;}
	.st4{font-family:'COCOGOOSE-UltraLight';}
	.st5{font-size:41.8656px;}
	.st6{letter-spacing:23.1;}
</style>
<path class="st0" d="M310.07,35.66"/>
<line class="st1" x1="407.99" y1="39.54" x2="179.02" y2="39.54"/>
<g>
	<path class="st2" d="M115.42,95.39c0.63,0,1.13,0.15,1.49,0.46c0.35,0.31,0.53,0.76,0.53,1.38v2c0,0.58-0.18,1.06-0.53,1.46
		c-0.36,0.4-0.85,0.59-1.49,0.59l-48-0.02l-1.56-0.91c-0.56,0-0.14-0.46-0.49-0.82c-0.36-0.36-0.59-0.25-0.63-0.75L64.37,98
		c0-0.54-0.6-0.25-0.58-0.88c0.02-0.63-0.36-0.79-0.14-1.08c0.31-0.39,0.14-0.85,0.46-1.25c1.77-2.26,3.7-4.68,5.79-7.27
		c2.47-3.06,5.05-6.25,7.76-9.57c2.71-3.33,5.47-6.72,8.3-10.17c2.82-3.45,5.6-6.85,8.32-10.2c2.73-3.34,5.34-6.58,7.85-9.71
		c2.5-3.13,4.8-6.02,6.89-8.69H64.92c-0.38,0-0.61-0.45-0.88-0.56c-0.69-0.28-1.13-0.53-1.13-1.54v-1.94c0-0.9,0.23-1.05,0.81-1.35
		c0.3-0.16,0.74-0.7,1.2-0.7c8.33,0,16.63,0,24.89,0c7.97,0,15.2-0.02,23.27-0.05c0.29,0,1,0.38,1.3,0.38l0.05,0.59
		c0.86,0,0.35,0.65,0.69,1.03c0.34,0.38,1.02-0.11,1.02,0.86c0,0.18,0.54,0.2,0.54,0.34c0,0.14-0.17,0.24-0.2,0.42l0.8,1.13
		c0,0.43-0.09,0.84-0.28,1.21c-0.19,0.38-0.42,0.74-0.7,1.08c-0.28,0.34-0.58,0.68-0.9,1.02c-0.32,0.34-0.61,0.67-0.87,1
		l-42.99,53.3H115.42z"/>
	<path class="st2" d="M131.45,69.5c0.11,0.61,0.2,1.43,0.25,2.45c0.06,1.02,0.21,1.99,0.48,2.89c0.93,3.2,2.31,6.13,4.12,8.79
		c1.81,2.66,3.97,4.94,6.47,6.85c2.5,1.91,5.3,3.4,8.38,4.48c3.08,1.08,6.34,1.62,9.78,1.62c1.98,0,3.83-0.14,5.55-0.43
		c1.72-0.29,3.32-0.69,4.79-1.21c1.48-0.52,2.88-1.14,4.2-1.86c1.33-0.72,2.59-1.51,3.78-2.37c0.37-0.22,0.76-0.48,1.15-0.78
		s0.78-0.59,1.15-0.86c0.37-0.27,0.72-0.5,1.04-0.7c0.32-0.2,0.61-0.3,0.87-0.3c0.3,0,0.64,0.23,1.01,0.7
		c0.63,0.86,1.09,1.53,1.37,2c0.28,0.47,0.74,1.15,0.78,1.4c0.06,0.31,0.33,0.57,0.2,0.73c-0.41,0.5-0.98,0.96-1.88,1.59
		c-0.66,0.46-1.45,0.98-2.27,1.52c-3.03,2.05-6.3,3.67-9.81,4.85c-3.51,1.19-7.34,1.78-11.49,1.78c-5.04,0-9.8-0.93-14.27-2.78
		c-4.47-1.85-8.37-4.39-11.71-7.61c-3.34-3.22-6-6.97-7.96-11.25c-1.96-4.28-2.94-8.85-2.94-13.7c0-3.27,0.43-6.42,1.29-9.44
		c0.86-3.02,2.07-5.84,3.64-8.47c1.57-2.63,3.47-5.02,5.69-7.17c2.22-2.16,4.71-4.01,7.45-5.56c2.75-1.55,5.7-2.74,8.86-3.59
		c3.16-0.84,6.47-1.27,9.95-1.27c3.25,0,6.4,0.38,9.44,1.13c3.05,0.76,5.91,1.85,8.6,3.29s5.15,3.2,7.37,5.29
		c2.22,2.09,4.14,4.44,5.75,7.07c1.61,2.63,2.88,5.52,3.81,8.68c0.93,3.16,1.46,6.55,1.57,10.14v-0.05c0,0.04,0.01,0.08,0.03,0.13
		c0.02,0.05,0.03,0.12,0.03,0.19c0,1.22-0.6,1.83-1.79,1.83H131.45z M153.43,39.02c-2.84,0.72-5.49,1.85-7.96,3.4
		c-2.47,1.55-4.65,3.38-6.56,5.5c-1.91,2.12-3.5,4.48-4.79,7.07c-1.29,2.59-2.18,5.3-2.66,8.15h59.98
		c-0.45-3.6-1.56-6.93-3.34-10.01c-1.78-3.07-4.01-5.74-6.7-7.98c-2.69-2.25-5.75-4.01-9.16-5.29c-3.42-1.28-7-1.91-10.73-1.91
		c-1.27,0-2.5,0.06-3.7,0.19C156.6,38.26,155.14,38.55,153.43,39.02z"/>
	<path class="st2" d="M256.14,43.08c-0.19,0.18,0,0-0.22,0c-0.26,0-0.38-0.15-0.73-0.29c-0.36-0.14-0.91,0.74-1.47,0.34
		c-0.38-0.26-0.8-0.42-1.25-0.69c-0.46-0.29-0.96-0.58-1.51-0.86c-1.06-0.56-2.19-1.08-3.36-1.56c-1.18-0.49-2.37-0.88-3.59-1.19
		c-1.21-0.31-2.4-0.46-3.56-0.46c-2.88,0-5.59,0.49-8.13,1.46c-2.54,0.97-4.76,2.35-6.67,4.13s-3.41,3.96-4.51,6.53
		c-1.1,2.57-1.65,5.44-1.65,8.6v40.29c0,1.12-0.6,1.67-1.79,1.67h-2.97c-1.23,0-1.85-0.56-1.85-1.67V34.58
		c0-0.97,0.52-1.46,1.57-1.46c0.11,0,0.2,0.02,0.28,0.05c0.07-0.04,0.2-0.05,0.39-0.05h2.3c0.67,0,1.19,0.19,1.54,0.57
		c0.35,0.38,0.53,0.85,0.53,1.43v8.79c0.78-1.4,1.81-2.79,3.08-4.15c1.27-1.37,2.77-2.6,4.48-3.7c1.72-1.1,3.63-1.99,5.75-2.67
		c2.11-0.68,4.38-1.02,6.81-1.02c1.94,0,3.75,0.13,5.41,0.38c1.66,0.25,3.24,0.63,4.74,1.13c1.49,0.5,2.93,1.14,4.32,1.91
		c1.38,0.77,2.03,1.23,3.42,2.27c0.37,0.29,0.03,1.2,0.33,1.53c0.3,0.32-0.26,0.42-0.26,0.85c0,0.32,0.19,0.5-0.44,1.16
		C256.49,42.27,256.89,42.47,256.14,43.08z"/>
	<path class="st2" d="M336.38,90.48l-0.17-4.1c-1.49,2.48-3.3,4.72-5.41,6.72c-2.11,2-4.45,3.7-7.01,5.1
		c-2.56,1.4-5.3,2.48-8.21,3.24s-5.94,1.13-9.08,1.13c-3.36,0-6.61-0.42-9.73-1.27c-3.12-0.84-6.04-2.05-8.77-3.61
		c-2.73-1.56-5.22-3.43-7.48-5.58c-2.26-2.16-4.2-4.55-5.8-7.17c-1.61-2.62-2.85-5.44-3.73-8.44c-0.88-3-1.32-6.12-1.32-9.36
		c0-3.24,0.44-6.36,1.32-9.36c0.88-3,2.13-5.82,3.76-8.44c1.63-2.62,3.56-5.02,5.8-7.17c2.24-2.16,4.73-4.02,7.45-5.58
		c2.73-1.56,5.65-2.77,8.77-3.61c3.12-0.84,6.36-1.27,9.73-1.27c3.06,0,6.06,0.38,9,1.13c2.93,0.75,5.69,1.84,8.27,3.26
		c2.58,1.42,4.94,3.14,7.09,5.15c2.15,2.01,3.99,4.26,5.52,6.74v-3.99V34.7c0-1.15,0.58-1.73,1.74-1.73h2.91
		c1.27,0,1.91,0.58,1.91,1.73v64.84c0,0.61-0.21,1.05-0.62,1.32c-0.41,0.27-0.9,0.4-1.46,0.4h-2.3c-1.46,0-2.19-0.65-2.19-1.94
		V90.48z M336.71,67.15c0-3.92-0.82-7.64-2.47-11.18c-1.64-3.54-3.85-6.65-6.61-9.32c-2.77-2.68-5.98-4.81-9.64-6.39
		c-3.66-1.58-7.51-2.39-11.55-2.43h-0.17c-4,0-7.8,0.79-11.41,2.37c-3.61,1.58-6.77,3.71-9.5,6.39c-2.73,2.68-4.9,5.78-6.5,9.3
		c-1.61,3.52-2.41,7.24-2.41,11.15s0.77,7.66,2.33,11.24c1.55,3.58,3.67,6.72,6.36,9.43c2.69,2.71,5.84,4.87,9.44,6.47
		c3.61,1.6,7.46,2.4,11.57,2.4c4.15,0,8.08-0.78,11.8-2.34c3.72-1.56,6.96-3.68,9.73-6.36c2.77-2.68,4.96-5.79,6.59-9.35
		C335.9,74.96,336.71,71.17,336.71,67.15z"/>
	<path class="st2" d="M387.1,38.37c-2.58,0-5.06,0.43-7.45,1.29s-4.52,2.09-6.39,3.67c-1.87,1.58-3.4,3.48-4.6,5.69
		c-1.2,2.21-1.87,4.67-2.02,7.36V83.9c0,0.11-0.01,0.22-0.03,0.32c-0.02,0.11-0.03,0.2-0.03,0.27v15.05c0,1.15-0.58,1.73-1.74,1.73
		h-2.92c-1.23,0-1.85-0.57-1.85-1.73V34.81c0-0.61,0.21-1.07,0.64-1.38c0.43-0.3,0.94-0.46,1.54-0.46h2.3
		c0.67,0,1.19,0.19,1.54,0.57c0.35,0.38,0.53,0.85,0.53,1.43l0,8.2c1.31-1.73,2.69-3.27,4.15-4.64c1.46-1.37,3.04-2.54,4.74-3.51
		c1.7-0.97,3.53-1.71,5.49-2.21c1.96-0.5,4.12-0.76,6.47-0.76c5.61,0,10.39,1.28,14.35,3.83c3.96,2.55,7.04,6.06,9.25,10.52
		c1.05-2.41,2.39-4.51,4.03-6.31c1.64-1.8,3.49-3.29,5.54-4.48c2.05-1.19,4.27-2.08,6.66-2.67c2.39-0.59,4.85-0.89,7.39-0.89
		c3.58,0,6.88,0.59,9.88,1.75c3,1.17,5.64,2.76,7.89,4.77c2.26,2.01,4.1,4.39,5.51,7.12c1.42,2.73,2.35,5.68,2.8,8.85
		c0.19,1.22,0.3,2.46,0.34,3.72c0.04,1.26,0.06,2.52,0.06,3.78v36.79c0,0.83-0.2,1.44-0.61,1.83c-0.41,0.4-0.94,0.59-1.61,0.59
		h-2.11c-0.85,0-1.42-0.18-1.69-0.54c-0.28-0.36-0.42-0.95-0.42-1.78V58.44c-0.11-2.52-0.64-4.99-1.57-7.42
		c-0.93-2.43-2.26-4.58-3.98-6.45c-1.72-1.87-3.82-3.38-6.31-4.53c-2.49-1.15-5.32-1.73-8.49-1.73c-2.58,0-4.98,0.4-7.2,1.19
		c-2.22,0.79-4.2,1.89-5.94,3.29c-1.74,1.4-3.19,3.07-4.34,4.99c-1.16,1.92-1.93,4.02-2.3,6.28c-0.45,2.48-0.67,5.09-0.67,7.82v37
		c0,0.79-0.21,1.38-0.62,1.78c-0.41,0.4-0.95,0.59-1.63,0.59h-2.13c-0.86,0-1.44-0.18-1.74-0.54c-0.3-0.36-0.45-0.95-0.45-1.78
		V61.89c0-1.15-0.03-2.33-0.08-3.53c-0.06-1.2-0.18-2.4-0.36-3.59c-0.34-2.23-1.05-4.33-2.13-6.31c-1.08-1.98-2.49-3.71-4.2-5.21
		c-1.72-1.49-3.72-2.68-6-3.56C392.34,38.81,389.83,38.37,387.1,38.37z"/>
	<path class="st2" d="M476.11,13.18c0-0.68,0.1-1.24,0.31-1.67c0.2-0.43,0.62-0.68,1.26-0.76h1.07h3.03
		c0.71,0.07,1.16,0.33,1.35,0.78c0.19,0.45,0.28,1,0.28,1.65v2.05c0,1.04-0.18,1.71-0.53,2c-0.36,0.29-1.04,0.43-2.05,0.43h-2.02
		c-0.97,0-1.66-0.13-2.07-0.38c-0.41-0.25-0.62-0.7-0.62-1.35V13.18z M476.45,34.81c0-1.15,0.6-1.73,1.79-1.73h2.97
		c1.2,0,1.79,0.58,1.79,1.73v64.73c0,1.15-0.58,1.73-1.74,1.73h-2.91c-1.27,0-1.91-0.57-1.91-1.73V34.81z"/>
	<path class="st2" d="M555.27,44.21c-0.33,0.04-1.23,0.24-1.62-0.09c-0.46-0.39-0.31-0.29-0.78-0.68c-0.99-0.83-2.31-1.66-3.95-2.51
		c-1.65-0.84-3.63-1.58-5.97-2.21c-2.34-0.63-5.07-0.94-8.21-0.94c-3.96,0-7.75,0.77-11.38,2.32c-3.63,1.55-6.82,3.65-9.58,6.31
		c-2.77,2.66-4.97,5.77-6.61,9.33c-1.65,3.56-2.47,7.34-2.47,11.33s0.79,7.77,2.38,11.33c1.59,3.56,3.75,6.69,6.47,9.39
		c2.73,2.7,5.89,4.84,9.5,6.42c3.61,1.58,7.43,2.37,11.46,2.37c1.98,0,3.81-0.14,5.49-0.43c1.68-0.29,3.27-0.69,4.76-1.21
		c1.49-0.52,2.9-1.14,4.2-1.86c1.31-0.72,2.6-1.51,3.87-2.37c0.26-0.18,0.59-0.42,0.98-0.73c0.39-0.31,0.79-0.59,1.18-0.86
		c0.39-0.27,0.99,0.23,1.32,0.03c0.34-0.2,0.52,0.26,0.74,0.26c0.34,0,0.39-0.04,0.8,0.39c0.64,0.83,0.78,0.35,1.06,0.83
		c0.28,0.49,0.61,0.93,0.61,1.18c0,0.14-0.09,0.69-0.09,0.83c-0.38,0.5-0.06,0.8-0.6,1.3c-0.63,0.57-1.74,1.49-2.58,2.05
		c-3.03,2.05-6.29,3.67-9.78,4.85c-3.49,1.19-7.33,1.78-11.52,1.78c-3.33,0-6.55-0.42-9.67-1.27c-3.12-0.84-6.04-2.04-8.77-3.59
		c-2.73-1.55-5.22-3.4-7.48-5.56c-2.26-2.16-4.2-4.55-5.83-7.17c-1.63-2.62-2.89-5.44-3.78-8.44s-1.34-6.12-1.34-9.36
		s0.45-6.36,1.34-9.39s2.16-5.84,3.78-8.47c1.63-2.63,3.57-5.02,5.83-7.17c2.26-2.16,4.75-4.01,7.48-5.56
		c2.73-1.55,5.65-2.74,8.77-3.59c3.12-0.84,6.34-1.27,9.67-1.27c2.24,0,4.44,0.21,6.59,0.62c2.15,0.41,4.21,0.98,6.19,1.7
		c1.98,0.72,3.85,1.57,5.61,2.56c1.43,0.81,3.1,1.92,4.34,2.83c0.28,0.21,0.06,0.24,0.33,0.45l0.14,0.18
		c0.21,0.51,0.51,2.42,0.03,2.96C558.18,43.09,555.78,44.15,555.27,44.21z"/>
</g>
<ellipse class="st0" cx="339.67" cy="34.42" rx="4.52" ry="4.35"/>
<ellipse class="st0" cx="216.18" cy="34.56" rx="4.53" ry="4.36"/>
<ellipse class="st0" cx="255.14" cy="40.29" rx="4.51" ry="4.34"/>
<ellipse class="st0" cx="184.56" cy="90.75" rx="4.38" ry="4.22"/>
<ellipse class="st0" cx="216.18" cy="99.67" rx="4.54" ry="4.37"/>
<ellipse class="st0" cx="363.34" cy="99.63" rx="4.48" ry="4.31"/>
<ellipse class="st0" cx="410.68" cy="99.32" rx="4.51" ry="4.34"/>
<ellipse class="st0" cx="457.99" cy="99.31" rx="4.46" ry="4.29"/>
<ellipse class="st0" cx="479.73" cy="99.69" rx="4.5" ry="4.33"/>
<ellipse class="st0" cx="479.73" cy="34.86" rx="3.25" ry="3.12"/>
<ellipse class="st0" cx="555.58" cy="41.74" rx="4.36" ry="4.2"/>
<ellipse class="st0" cx="556.59" cy="91.78" rx="4.43" ry="4.26"/>
<ellipse class="st0" cx="339.65" cy="99.76" rx="4.5" ry="4.33"/>
<ellipse class="st0" cx="115.44" cy="98.32" rx="4.27" ry="4.11"/>
<ellipse class="st0" cx="64.98" cy="36.14" rx="4.38" ry="4.22"/>
<ellipse class="st0" cx="113.77" cy="36.9" rx="5.23" ry="5.03"/>
<ellipse class="st0" cx="67.36" cy="97.28" rx="5.37" ry="5.17"/>
<ellipse class="st0" cx="363.37" cy="34.42" rx="4.51" ry="4.34"/>
<ellipse class="st0" cx="479.53" cy="14.02" rx="5.92" ry="5.7"/>
<text transform="matrix(1.0391 0 0 1 120.0268 179.6744)" class="st3 st4 st5 st6">Guatapé</text>
</svg>
