<?xml version="1.0" encoding="utf-8"?>
<!-- Generator: Adobe Illustrator 25.4.1, SVG Export Plug-In . SVG Version: 6.00 Build 0)  -->
<svg version="1.1" xmlns="http://www.w3.org/2000/svg" xmlns:xlink="http://www.w3.org/1999/xlink" x="0px" y="0px"
	 viewBox="0 0 1139.37 315.79" style="enable-background:new 0 0 1139.37 315.79;" xml:space="preserve">
<style type="text/css">
	.st0{display:none;}
	.st1{fill:#FFFFFF;}
	.st2{fill:#5200F8;}
	.st3{fill:#FFFFFF;stroke:#FFFFFF;stroke-width:3;stroke-miterlimit:10;}
	.st4{fill:#FFFFFF;stroke:#FFFFFF;stroke-miterlimit:10;}
	.st5{font-family:'CocogooseProTrial-Ultralight';}
	.st6{font-size:52.4662px;}
	.st7{letter-spacing:29.11;}
</style>
<g id="Capa_1" class="st0">
</g>
<g id="Capa_3">
	<g id="Capa_2">
		<ellipse class="st1" cx="174.81" cy="163.63" rx="142.48" ry="132.05"/>
		<path class="st2" d="M41.56,213.08c0,0,15.57-18.08,44.93-22.28c29.36-4.2,58.73-3.1,71.93-2.56c13.2,0.55,29.17-0.37,34.88-11.14
			c5.72-10.78,0.79-18.45-6.31-20.46c-7.09-2.01-14.48-0.91-20.69-2.56c-5.58-1.48-21.68-6.21-21.09-24.11
			c0.59-17.9,24.63-25.75,34.09-27.4c9.46-1.64,31.93-3.29,38.23-5.3c6.31-2.01,8.08-3.47,12.42-9.86
			c4.34-6.39,10.58-14.37,19.9-9.68c8.47,4.26,4.53,12.24,3.35,14.25c-1.18,2.01-4.82,6.58-2.83,8.53c2.1,2.06,4.34,0.66,9.85-0.62
			c0,0,4.37-1.13,5.52-1.28c1.14-0.15,10.44-1.95,13.07,6.76c2.12,7.04-2.04,10.96-8.74,13.7c-6.7,2.74-12.74,3.96-12.74,3.96
			c-4.34,0.91-2.96,3.84,0.79,8.4c3.74,4.57,16.74,24.26,22.47,45.84c17.34,65.39-11.23,122.01-11.23,122.01H48.26L41.56,213.08z"/>
		<ellipse class="st1" cx="212.65" cy="120.89" rx="7.88" ry="7.31"/>
	</g>
	<g>
		<path class="st3" d="M472.94,155.56c0.92,0,1.64,0.19,2.15,0.57c0.51,0.38,0.77,0.96,0.77,1.72v2.5c0,0.72-0.26,1.33-0.77,1.83
			c-0.52,0.5-1.23,0.74-2.15,0.74l-69.61-0.02l-2.26-1.14c-0.81,0-0.2-0.57-0.72-1.03c-0.52-0.45-0.86-0.31-0.91-0.94l-0.54-0.96
			c0-0.68-0.87-0.32-0.84-1.11c0.03-0.79-0.52-0.99-0.2-1.35c0.44-0.49,0.21-1.06,0.67-1.57c2.57-2.83,5.36-5.86,8.4-9.11
			c3.58-3.83,7.33-7.83,11.26-12c3.93-4.17,7.94-8.42,12.03-12.74c4.09-4.33,8.12-8.59,12.07-12.78c3.95-4.19,7.75-8.25,11.38-12.17
			c3.63-3.92,6.96-7.55,10-10.88H399.7c-0.55,0-0.89-0.57-1.28-0.71c-1-0.36-1.64-0.67-1.64-1.93v-2.43c0-1.13,0.33-1.31,1.18-1.7
			c0.44-0.2,1.08-0.87,1.74-0.87c12.08,0,24.12,0,36.09,0c11.56,0,22.04-0.03,33.75-0.07c0.43,0,1.45,0.48,1.88,0.48l0.07,0.74
			c1.25,0,0.51,0.82,1,1.29c0.49,0.47,1.48-0.14,1.48,1.08c0,0.23,0.78,0.25,0.78,0.43c0,0.18-0.24,0.3-0.3,0.52l1.17,1.41
			c0,0.54-0.14,1.05-0.41,1.52c-0.27,0.47-0.61,0.92-1.02,1.35c-0.41,0.43-0.84,0.86-1.3,1.28c-0.46,0.43-0.88,0.85-1.26,1.25
			l-62.35,66.79H472.94z"/>
		<path class="st3" d="M496.19,123.11c0.16,0.77,0.28,1.79,0.37,3.08c0.08,1.28,0.31,2.49,0.69,3.62c1.35,4.01,3.35,7.68,5.97,11.02
			c2.63,3.34,5.76,6.2,9.39,8.59c3.63,2.39,7.68,4.26,12.15,5.61c4.47,1.35,9.2,2.03,14.18,2.03c2.87,0,5.55-0.18,8.05-0.54
			c2.49-0.36,4.81-0.87,6.95-1.52c2.14-0.65,4.17-1.43,6.1-2.33c1.92-0.9,3.75-1.89,5.49-2.97c0.54-0.27,1.1-0.6,1.67-0.98
			s1.12-0.74,1.67-1.08c0.54-0.34,1.04-0.63,1.5-0.88c0.46-0.25,0.88-0.37,1.26-0.37c0.43,0,0.92,0.29,1.46,0.88
			c0.92,1.08,1.58,1.92,1.99,2.5c0.41,0.59,1.07,1.44,1.13,1.75c0.08,0.39,0.48,0.71,0.29,0.91c-0.6,0.63-1.42,1.21-2.72,1.99
			c-0.96,0.58-2.11,1.23-3.3,1.9c-4.39,2.57-9.13,4.6-14.23,6.08c-5.09,1.49-10.65,2.23-16.66,2.23c-7.32,0-14.21-1.16-20.69-3.48
			c-6.48-2.32-12.14-5.5-16.99-9.53c-4.85-4.03-8.7-8.73-11.54-14.09c-2.85-5.36-4.27-11.09-4.27-17.17c0-4.1,0.62-8.04,1.87-11.83
			c1.25-3.79,3.01-7.32,5.28-10.61c2.28-3.29,5.03-6.29,8.25-8.99c3.22-2.7,6.83-5.03,10.81-6.96c3.98-1.94,8.26-3.44,12.84-4.5
			c4.58-1.06,9.39-1.59,14.43-1.59c4.71,0,9.28,0.47,13.7,1.42c4.42,0.95,8.58,2.32,12.48,4.12c3.9,1.8,7.46,4.01,10.69,6.62
			c3.22,2.61,6,5.57,8.33,8.86c2.33,3.29,4.17,6.92,5.53,10.88c1.35,3.97,2.11,8.2,2.28,12.71v-0.07c0,0.05,0.01,0.1,0.04,0.17
			c0.03,0.07,0.04,0.15,0.04,0.24c0,1.53-0.87,2.3-2.6,2.3H496.19z M528.06,84.91c-4.12,0.9-7.97,2.32-11.54,4.26
			c-3.58,1.94-6.75,4.24-9.51,6.9c-2.76,2.66-5.08,5.61-6.95,8.86c-1.87,3.24-3.16,6.65-3.86,10.21h86.98
			c-0.65-4.51-2.26-8.69-4.84-12.54c-2.57-3.85-5.81-7.19-9.71-10c-3.9-2.82-8.33-5.03-13.29-6.62c-4.96-1.6-10.15-2.4-15.57-2.4
			c-1.84,0-3.63,0.08-5.37,0.24C532.66,83.96,530.55,84.33,528.06,84.91z"/>
		<path class="st3" d="M677.02,90c-0.27,0.23,0,0-0.33,0c-0.38,0-0.54-0.19-1.06-0.37s-1.32,0.92-2.13,0.43
			c-0.56-0.33-1.16-0.53-1.81-0.87c-0.67-0.36-1.4-0.72-2.18-1.08c-1.54-0.7-3.17-1.35-4.88-1.96c-1.71-0.61-3.44-1.1-5.2-1.49
			c-1.76-0.38-3.48-0.57-5.16-0.57c-4.17,0-8.1,0.61-11.79,1.83c-3.69,1.22-6.91,2.94-9.67,5.17c-2.76,2.23-4.95,4.96-6.54,8.18
			c-1.6,3.22-2.4,6.82-2.4,10.78v50.5c0,1.4-0.87,2.1-2.6,2.1h-4.31c-1.79,0-2.68-0.7-2.68-2.1V79.35c0-1.22,0.76-1.82,2.28-1.82
			c0.16,0,0.3,0.02,0.41,0.07c0.11-0.04,0.3-0.07,0.57-0.07h3.33c0.98,0,1.72,0.24,2.24,0.71c0.51,0.47,0.77,1.07,0.77,1.79v11.02
			c1.14-1.76,2.63-3.49,4.47-5.2c1.84-1.71,4.01-3.26,6.5-4.63c2.49-1.37,5.27-2.49,8.33-3.35c3.06-0.86,6.35-1.28,9.88-1.28
			c2.82,0,5.43,0.16,7.85,0.47c2.41,0.32,4.7,0.79,6.87,1.42c2.17,0.63,4.25,1.43,6.26,2.4c2,0.97,2.95,1.54,4.96,2.84
			c0.54,0.36,0.05,1.51,0.48,1.91c0.43,0.41-0.37,0.53-0.37,1.07c0,0.41,0.28,0.62-0.64,1.46C677.52,88.99,678.11,89.23,677.02,90z"
			/>
		<path class="st3" d="M793.38,149.4l-0.24-5.14c-2.17,3.11-4.78,5.92-7.84,8.42c-3.06,2.5-6.45,4.63-10.16,6.39
			c-3.71,1.76-7.68,3.11-11.91,4.06c-4.23,0.95-8.62,1.42-13.17,1.42c-4.88,0-9.58-0.53-14.1-1.59c-4.53-1.06-8.77-2.57-12.72-4.53
			c-3.96-1.96-7.57-4.29-10.85-7c-3.28-2.7-6.08-5.7-8.41-8.99c-2.33-3.29-4.13-6.82-5.41-10.58c-1.27-3.76-1.91-7.67-1.91-11.73
			s0.64-7.97,1.91-11.73c1.27-3.76,3.09-7.29,5.45-10.58c2.36-3.29,5.16-6.29,8.41-8.99c3.25-2.7,6.85-5.04,10.81-7
			c3.95-1.96,8.2-3.47,12.72-4.53c4.52-1.06,9.23-1.59,14.1-1.59c4.44,0,8.79,0.47,13.05,1.42c4.25,0.95,8.25,2.31,11.99,4.09
			c3.74,1.78,7.17,3.93,10.28,6.46c3.12,2.52,5.78,5.34,8.01,8.45v-5V79.5c0-1.44,0.84-2.16,2.52-2.16h4.23
			c1.84,0,2.76,0.72,2.76,2.16v81.26c0,0.77-0.3,1.32-0.89,1.66c-0.6,0.34-1.3,0.51-2.11,0.51h-3.33c-2.11,0-3.17-0.81-3.17-2.43
			V149.4z M793.87,120.17c0-4.91-1.19-9.58-3.58-14.01c-2.38-4.43-5.58-8.33-9.59-11.68c-4.01-3.36-8.67-6.02-13.98-8
			c-5.31-1.98-10.89-2.99-16.75-3.04h-0.24c-5.8,0-11.31,0.99-16.54,2.97c-5.23,1.98-9.82,4.65-13.78,8
			c-3.96,3.36-7.1,7.24-9.43,11.65c-2.33,4.41-3.49,9.07-3.49,13.98c0,4.91,1.12,9.6,3.37,14.08c2.25,4.48,5.32,8.42,9.23,11.82
			c3.9,3.4,8.47,6.1,13.7,8.1c5.23,2,10.82,3.01,16.79,3.01c6.02,0,11.72-0.98,17.11-2.94c5.39-1.96,10.09-4.61,14.1-7.97
			c4.01-3.36,7.19-7.26,9.55-11.72C792.69,129.96,793.87,125.21,793.87,120.17z"/>
		<path class="st3" d="M866.95,84.1c-3.74,0-7.34,0.54-10.81,1.62s-6.56,2.61-9.27,4.6c-2.71,1.98-4.93,4.36-6.67,7.13
			c-1.73,2.77-2.71,5.85-2.93,9.23v34.48c0,0.14-0.01,0.27-0.04,0.41c-0.03,0.14-0.04,0.25-0.04,0.34v18.86
			c0,1.44-0.84,2.16-2.52,2.16h-4.23c-1.79,0-2.68-0.72-2.68-2.16V79.64c0-0.77,0.31-1.34,0.94-1.72c0.62-0.38,1.37-0.57,2.23-0.57
			h3.33c0.98,0,1.72,0.24,2.24,0.71c0.51,0.47,0.77,1.07,0.77,1.79l0,10.28c1.9-2.16,3.9-4.1,6.02-5.81
			c2.11-1.71,4.4-3.18,6.87-4.39c2.46-1.22,5.12-2.14,7.97-2.77c2.85-0.63,5.98-0.95,9.39-0.95c8.13,0,15.07,1.6,20.81,4.8
			c5.74,3.2,10.22,7.59,13.41,13.18c1.52-3.02,3.46-5.66,5.85-7.91c2.38-2.25,5.06-4.12,8.04-5.61c2.98-1.49,6.2-2.6,9.66-3.35
			c3.46-0.74,7.04-1.12,10.72-1.12c5.2,0,9.97,0.73,14.33,2.2c4.36,1.46,8.17,3.46,11.45,5.98c3.27,2.52,5.94,5.5,8,8.92
			c2.06,3.43,3.41,7.12,4.06,11.09c0.27,1.53,0.43,3.09,0.49,4.66c0.05,1.58,0.08,3.15,0.08,4.73v46.1c0,1.04-0.3,1.8-0.89,2.3
			c-0.59,0.5-1.37,0.74-2.34,0.74h-3.06c-1.24,0-2.06-0.22-2.46-0.68c-0.4-0.45-0.6-1.19-0.6-2.23v-50.77
			c-0.16-3.15-0.92-6.25-2.28-9.3c-1.35-3.04-3.28-5.73-5.77-8.08c-2.49-2.34-5.54-4.23-9.15-5.68c-3.6-1.44-7.71-2.16-12.32-2.16
			c-3.74,0-7.22,0.5-10.45,1.49c-3.23,0.99-6.1,2.37-8.62,4.12c-2.52,1.76-4.62,3.84-6.3,6.25c-1.68,2.41-2.79,5.04-3.33,7.88
			c-0.65,3.11-0.98,6.38-0.98,9.8v46.37c0,0.99-0.3,1.74-0.89,2.23c-0.6,0.5-1.38,0.74-2.36,0.74h-3.09c-1.25,0-2.09-0.22-2.52-0.68
			c-0.43-0.45-0.65-1.19-0.65-2.23v-46.44c0-1.44-0.04-2.92-0.12-4.43c-0.08-1.51-0.26-3.01-0.53-4.5
			c-0.49-2.79-1.52-5.43-3.09-7.91c-1.57-2.48-3.6-4.65-6.1-6.52c-2.49-1.87-5.39-3.36-8.7-4.46
			C874.54,84.65,870.91,84.1,866.95,84.1z"/>
		<path class="st3" d="M996.04,52.53c0-0.86,0.15-1.56,0.45-2.1c0.3-0.54,0.91-0.86,1.83-0.95h1.54h4.39
			c1.03,0.09,1.68,0.42,1.95,0.98c0.27,0.56,0.41,1.25,0.41,2.06v2.57c0,1.31-0.26,2.14-0.77,2.5c-0.52,0.36-1.5,0.54-2.97,0.54
			h-2.93c-1.41,0-2.41-0.16-3.01-0.47c-0.6-0.31-0.89-0.88-0.89-1.69V52.53z M996.53,79.64c0-1.44,0.87-2.16,2.6-2.16h4.31
			c1.73,0,2.6,0.72,2.6,2.16v81.12c0,1.44-0.84,2.16-2.52,2.16h-4.23c-1.84,0-2.76-0.72-2.76-2.16V79.64z"/>
		<path class="st3" d="M1110.84,91.42c-0.48,0.05-1.79,0.3-2.34-0.11c-0.66-0.49-0.44-0.36-1.13-0.85
			c-1.44-1.04-3.35-2.08-5.73-3.14c-2.39-1.06-5.27-1.98-8.66-2.77c-3.39-0.79-7.36-1.18-11.91-1.18c-5.74,0-11.25,0.97-16.5,2.91
			c-5.26,1.94-9.89,4.58-13.9,7.91c-4.01,3.34-7.21,7.23-9.59,11.7c-2.39,4.46-3.58,9.19-3.58,14.2c0,5,1.15,9.73,3.45,14.2
			c2.3,4.46,5.43,8.38,9.39,11.76c3.95,3.38,8.55,6.06,13.78,8.04c5.23,1.98,10.77,2.97,16.62,2.97c2.87,0,5.53-0.18,7.97-0.54
			c2.44-0.36,4.74-0.87,6.91-1.52c2.17-0.65,4.2-1.43,6.1-2.33c1.9-0.9,3.77-1.89,5.61-2.97c0.38-0.22,0.85-0.53,1.42-0.91
			c0.57-0.38,1.14-0.74,1.71-1.08c0.57-0.34,1.43,0.29,1.92,0.04c0.49-0.25,0.75,0.32,1.07,0.32c0.49,0,0.57-0.05,1.17,0.49
			c0.92,1.04,1.13,0.44,1.54,1.05c0.41,0.61,0.89,1.16,0.89,1.48c0,0.18-0.13,0.87-0.13,1.05c-0.55,0.63-0.09,1.01-0.88,1.62
			c-0.91,0.72-2.52,1.87-3.74,2.57c-4.39,2.57-9.12,4.6-14.18,6.08c-5.07,1.49-10.64,2.23-16.71,2.23c-4.82,0-9.5-0.53-14.02-1.59
			c-4.53-1.06-8.77-2.56-12.72-4.5c-3.96-1.94-7.57-4.26-10.85-6.96c-3.28-2.7-6.1-5.7-8.45-8.99c-2.36-3.29-4.19-6.82-5.49-10.58
			c-1.3-3.76-1.95-7.67-1.95-11.73s0.65-7.98,1.95-11.76c1.3-3.79,3.13-7.32,5.49-10.61c2.36-3.29,5.17-6.29,8.45-8.99
			c3.28-2.7,6.9-5.03,10.85-6.96c3.96-1.94,8.2-3.44,12.72-4.5c4.52-1.06,9.2-1.59,14.02-1.59c3.25,0,6.43,0.26,9.55,0.78
			c3.12,0.52,6.11,1.23,8.98,2.13c2.87,0.9,5.58,1.97,8.13,3.21c2.08,1.01,4.5,2.41,6.29,3.55c0.41,0.26,0.09,0.3,0.48,0.56
			l0.2,0.22c0.31,0.64,0.74,3.03,0.04,3.71C1115.06,90.02,1111.58,91.34,1110.84,91.42z"/>
	</g>
	<ellipse class="st4" cx="798.15" cy="79.15" rx="6.55" ry="5.45"/>
	<ellipse class="st4" cx="619.07" cy="79.32" rx="6.57" ry="5.46"/>
	<ellipse class="st4" cx="675.57" cy="86.5" rx="6.54" ry="5.44"/>
	<ellipse class="st4" cx="573.22" cy="149.75" rx="6.35" ry="5.28"/>
	<ellipse class="st4" cx="619.06" cy="160.92" rx="6.58" ry="5.47"/>
	<ellipse class="st4" cx="832.48" cy="160.86" rx="6.5" ry="5.4"/>
	<ellipse class="st4" cx="901.14" cy="160.48" rx="6.54" ry="5.44"/>
	<ellipse class="st4" cx="969.76" cy="160.47" rx="6.46" ry="5.38"/>
	<ellipse class="st4" cx="1001.28" cy="160.95" rx="6.53" ry="5.43"/>
	<ellipse class="st4" cx="1001.28" cy="79.7" rx="4.71" ry="3.91"/>
	<ellipse class="st4" cx="1111.29" cy="88.32" rx="6.32" ry="5.26"/>
	<ellipse class="st4" cx="1112.75" cy="151.03" rx="6.42" ry="5.34"/>
	<ellipse class="st4" cx="798.13" cy="161.03" rx="6.53" ry="5.43"/>
	<ellipse class="st4" cx="472.96" cy="159.23" rx="6.19" ry="5.15"/>
	<ellipse class="st4" cx="399.78" cy="81.3" rx="6.36" ry="5.28"/>
	<ellipse class="st4" cx="470.55" cy="82.25" rx="7.58" ry="6.31"/>
	<ellipse class="st4" cx="403.24" cy="157.92" rx="7.78" ry="6.47"/>
	<ellipse class="st4" cx="832.53" cy="79.15" rx="6.55" ry="5.44"/>
	<ellipse class="st4" cx="1001" cy="53.58" rx="8.59" ry="7.14"/>
	<text transform="matrix(1.2025 0 0 1 544.9857 255.4981)" class="st1 st5 st6 st7">Guatapé</text>
	<path class="st2" d="M1119.16-142.1"/>
</g>
</svg>
